<svg width="1200" height="540" viewBox="0 0 1200 540" xmlns="http://www.w3.org/2000/svg">
  <defs>
    <linearGradient id="bg1" x1="0" y1="0" x2="1" y2="1">
      <stop offset="0%" stop-color="#3F6B4A"/>
      <stop offset="100%" stop-color="#7FA36B"/>
    </linearGradient>
    <linearGradient id="leaf1" x1="0" y1="0" x2="1" y2="1">
      <stop offset="0%" stop-color="#D4F2A7"/>
      <stop offset="100%" stop-color="#9AD17B"/>
    </linearGradient>
  </defs>
  <rect width="1200" height="540" fill="url(#bg1)"/>
  <circle cx="1060" cy="80" r="160" fill="#FFFFFF" fill-opacity="0.08"/>
  <ellipse cx="170" cy="430" rx="220" ry="120" fill="#FFFFFF" fill-opacity="0.10"/>
  <g transform="translate(740,130)">
    <ellipse cx="90" cy="220" rx="200" ry="70" fill="#2E4D38" fill-opacity="0.45"/>
    <path d="M0 175 C0 125 40 100 90 100 C140 100 180 125 180 175 L180 210 L0 210 Z" fill="#F7F1E3"/>
    <rect x="32" y="208" width="116" height="22" rx="11" fill="#E7DDC9"/>
    <path d="M180 145 C220 145 225 200 185 210" fill="none" stroke="#F7F1E3" stroke-width="16" stroke-linecap="round"/>
    <path d="M45 120 C65 90 50 60 70 35" stroke="#EAF7D8" stroke-width="8" fill="none" stroke-linecap="round"/>
    <path d="M90 105 C110 75 95 45 117 20" stroke="#EAF7D8" stroke-width="8" fill="none" stroke-linecap="round"/>
    <path d="M130 120 C150 90 135 60 155 35" stroke="#EAF7D8" stroke-width="8" fill="none" stroke-linecap="round"/>
  </g>
  <g transform="translate(130,120)">
    <path d="M0 120 C80 0 180 0 260 120 C180 130 80 130 0 120 Z" fill="url(#leaf1)" fill-opacity="0.85"/>
    <path d="M50 90 C120 20 180 20 235 90" fill="none" stroke="#7CB760" stroke-width="6" stroke-linecap="round"/>
  </g>
  <text x="120" y="245" fill="#FFFFFF" font-size="62" font-family="Arial, sans-serif" font-weight="700">Tea Culture</text>
  <text x="120" y="300" fill="#E5F3DE" font-size="30" font-family="Arial, sans-serif">Learn tea art · Know tea · Meet tea friends</text>
</svg>
